<?xml version="1.0" encoding="utf-8"?>
<!-- Generator: Adobe Illustrator 25.0.0, SVG Export Plug-In . SVG Version: 6.00 Build 0)  -->
<svg version="1.1" xmlns="http://www.w3.org/2000/svg" xmlns:xlink="http://www.w3.org/1999/xlink" x="0px" y="0px"
	 viewBox="0 0 119.01 121.38" style="enable-background:new 0 0 119.01 121.38;" xml:space="preserve">
<style type="text/css">
	.st0{fill:#0083C3;}
	.st1{fill:#312783;}
	.st2{fill:#CE164A;}
	.st3{fill:#FFFFFF;}
	.st4{fill:#FAE400;}
	.st5{fill:#3B55A2;}
	.st6{fill:#63C1C1;}
	.st7{fill:#DB6A6A;}
	.st8{fill:#86569F;}
	.st9{fill:#52732B;}
	.st10{fill:#A08858;}
	.st11{fill:#E82C88;}
	.st12{fill:#FBBA37;}
</style>
<g id="base_x5F_cohete">
</g>
<g id="cohete_x5F_azul">
</g>
<g id="cohete_x5F_rojo_x5F_tubos">
</g>
<g id="cohete_x5F_alas">
</g>
<g id="dedo">
</g>
<g id="amarillo">
</g>
<g id="merchants">
</g>
<g id="space">
</g>
<g id="the">
</g>
<g id="kornbluth">
</g>
<g id="_x2F_">
</g>
<g id="pohl">
</g>
<g id="fiction">
	<path class="st11" d="M56.31,12.78c0.07-3.2,0.14-6.4,0.21-9.6c0.01-0.28,0.03-0.56,0.04-0.85c0.03-1.49,0.37-1.59,1.68-1.56
		c2.91,0.07,5.83,0.04,8.74,0.06c0.28,0,0.57-0.01,0.85,0.01c1.02,0.08,1.19,0.29,1.09,1.33c-0.05,0.5-0.29,0.77-0.79,0.82
		C67.86,3.03,67.58,3.01,67.29,3c-2.35-0.04-4.7-0.08-7.06-0.11c-1.41-0.01-1.42,0-1.44,1.39c-0.04,1.79-0.06,3.58-0.09,5.36
		c0,0.09-0.01,0.19-0.01,0.28c0.02,0.94,0.12,1.06,1.04,1.08c1.65,0.04,3.29,0.03,4.94,0.08c1.21,0.03,1.31,0.04,1.22,1.44
		c-0.03,0.5-0.2,0.65-0.72,0.64c-1.6-0.02-3.2-0.05-4.8-0.08c-0.42-0.01-0.85-0.02-1.27,0.02c-0.29,0.03-0.52,0.21-0.54,0.55
		c-0.02,0.28-0.01,0.56-0.02,0.85c-0.07,2.73-0.14,5.46-0.21,8.18c-0.01,0.42-0.04,0.85-0.09,1.27c-0.01,0.12-0.12,0.28-0.22,0.33
		c-0.58,0.26-1.18,0.27-1.76-0.03c-0.1-0.05-0.19-0.22-0.2-0.34c-0.03-0.47-0.03-0.94-0.02-1.41c0.07-3.25,0.14-6.49,0.21-9.74
		C56.28,12.78,56.29,12.78,56.31,12.78z"/>
	<path class="st11" d="M95.25,89.14c-1.22-0.64-2.32-1.47-3.28-2.43c-1.62-1.62-2.68-4.53-1.41-7.14c0.08-0.17,0.18-0.33,0.26-0.5
		c1.42-2.95,4.21-3.72,6.83-3.26c1.83,0.32,3.49,1.09,5.02,2.14c0.43,0.29,0.84,0.61,1.24,0.93c1.51,1.23,2.48,2.77,2.86,4.71
		c0.6,3.03-1.66,7.17-6.03,7.27c-0.49,0.01-1.02-0.24-1.47,0.16c-0.09,0.08-0.18,0.04-0.25-0.05c-0.39-0.55-1.06-0.55-1.6-0.8
		C96.69,89.85,95.97,89.49,95.25,89.14z M96.77,87.17c0.24-0.2,0.08-0.69,0.62-0.74c-0.07,0.43,0.47,0.63,0.37,1.11
		c-0.04,0.21,0.08,0.34,0.26,0.44c0.89,0.47,1.83,0.72,2.83,0.8c2.85,0.24,5.03-2.91,3.9-5.5c-0.34-0.79-0.79-1.49-1.44-2.06
		c-1.57-1.39-3.39-2.36-5.31-3.15c-0.71-0.29-1.46-0.37-2.21-0.35c-2.93,0.09-4.89,3.26-3.41,5.9c0.27,0.49,0.58,0.95,1,1.35
		c0.96,0.92,2.06,1.63,3.24,2.22c-0.02,0.12,0.04,0.19,0.14,0.15C96.87,87.32,96.87,87.24,96.77,87.17z"/>
	<path class="st11" d="M75.62,95.98c0.07-0.84,0.78-1.11,1.36-1.49c0.17-0.11,0.38-0.04,0.51,0.11c0.38,0.42,0.77,0.83,1.11,1.27
		c1.91,2.51,3.8,5.03,5.7,7.55c0.23,0.3,0.46,0.6,0.69,0.89c0.77,0.97,1.88,1.24,2.99,0.74c0.85-0.38,1.48-1,1.83-1.87
		c0.32-0.79,0.5-1.62,0.64-2.45c0.1-0.6-0.04-1.07-0.42-1.56c-1.48-1.89-2.91-3.82-4.36-5.73c-0.68-0.9-1.37-1.8-2.04-2.71
		c-0.49-0.66-0.43-1.06,0.19-1.55c0.11-0.09,0.23-0.16,0.35-0.23c0.38-0.23,0.59-0.21,0.87,0.1c0.22,0.24,0.42,0.5,0.62,0.77
		c1.95,2.59,3.9,5.19,5.86,7.78c0.77,1.01,1.54,2.02,2.34,3.01c0.36,0.45,0.66,0.91,0.82,1.46l0-0.02c-0.19,0.2-0.38,0.42-0.58,0.61
		c-0.9,0.81-1.02,0.54-1.56-0.13c-0.15-0.18-0.29-0.37-0.47-0.52c-0.11-0.09-0.27-0.06-0.36,0.07c-0.1,0.15-0.23,0.32-0.26,0.49
		c-0.18,1.09-0.77,2.01-1.25,2.98c0,0-0.09,0.01-0.09,0.01l0.01,0.09c-0.06,0.11-0.13,0.22-0.19,0.32c-0.9,0.57-1.79,1.15-2.69,1.72
		c-0.11,0-0.22,0.01-0.33,0.01c-0.12-0.12-0.23-0.11-0.34,0.01c-0.32-0.03-0.64-0.05-0.96-0.08c-0.04-0.13-0.12-0.16-0.24-0.11
		c-0.11-0.05-0.23-0.11-0.34-0.16c-0.03-0.14-0.1-0.17-0.22-0.08c0,0-0.07-0.04-0.07-0.04c-0.15-0.3-0.4-0.47-0.73-0.52
		c-0.33-0.33-0.65-0.67-0.98-1c-0.06-0.12-0.1-0.26-0.18-0.37c-1.11-1.43-2.23-2.87-3.35-4.29c-0.14-0.18-0.33-0.31-0.5-0.47
		c-0.35-0.45-0.69-0.91-1.04-1.36C77.32,98.03,76.48,97,75.62,95.98z"/>
	<path class="st11" d="M85.96,26.08c-0.7,0.76-1.37,1.54-1.84,2.48c-0.58,1.15-0.68,2.34-0.37,3.56c0.38,1.47,1.8,2.56,3.32,2.59
		c0.66,0.01,1.31-0.08,1.95-0.24c0.93-0.23,1.18-0.07,1.4,0.8c0.14,0.54,0.09,0.65-0.43,0.84c-1.7,0.62-3.39,0.66-5.07-0.13
		c-1.43-0.67-1.46-0.76-2.44-2.16c-0.81-1.15-1.03-2.4-0.91-3.74c0.21-2.46,1.36-4.47,3.08-6.17c0.6-0.59,1.28-1.09,1.97-1.59
		c1.64-1.2,3.47-1.66,5.45-1.52c1.83,0.13,3.24,1,4.33,2.53c1.03,1.44,1.12,2.94,0.71,4.55c-0.24,0.94-0.61,1.1-1.57,0.76
		c-0.09-0.03-0.18-0.06-0.26-0.1c-0.28-0.14-0.44-0.36-0.36-0.68c0.1-0.41,0.22-0.82,0.31-1.23c0.4-1.79-0.81-3.88-3.1-4.02
		c-0.96-0.06-1.87,0.09-2.71,0.6C88.36,23.86,87.26,24.66,85.96,26.08z"/>
	<path class="st11" d="M99.14,42.44c1.46-0.65,2.92-1.31,4.39-1.97c0.3-0.14,0.61-0.26,0.9-0.42c0.38-0.2,0.47-0.42,0.32-0.81
		c-0.17-0.44-0.39-0.85-0.58-1.29c-0.21-0.48-0.14-0.64,0.34-0.9c0.08-0.04,0.16-0.09,0.25-0.13c0.62-0.27,0.97-0.17,1.3,0.4
		c0.19,0.33,0.32,0.68,0.51,1.01c0.23,0.41,0.51,0.53,0.94,0.35c0.96-0.4,1.89-0.84,2.84-1.26c0.39-0.17,0.77-0.35,1.18-0.48
		c0.3-0.1,0.56,0.03,0.74,0.28c0.11,0.15,0.18,0.33,0.26,0.5c0.39,0.82,0.38,0.87-0.45,1.26c-0.85,0.4-1.72,0.78-2.58,1.16
		c-0.3,0.14-0.61,0.26-0.9,0.41c-0.63,0.32-0.7,0.5-0.46,1.11c0.12,0.31,0.27,0.6,0.4,0.9c0.13,0.3,0.28,0.6,0.39,0.91
		c0.33,0.88-0.03,1.45-0.98,1.52c-0.3,0.02-0.56-0.14-0.7-0.4c-0.23-0.41-0.43-0.84-0.63-1.26c-0.19-0.38-0.35-0.77-0.56-1.14
		c-0.13-0.22-0.36-0.3-0.61-0.22c-0.22,0.07-0.44,0.17-0.65,0.26c-2.97,1.31-5.94,2.65-8.93,3.92c-1.62,0.69-1.95,1.46-1.22,3.09
		c0.12,0.26,0.23,0.51,0.35,0.77c0.12,0.26,0.25,0.54-0.05,0.75c-0.31,0.22-0.63,0.44-1.04,0.24c-0.12-0.06-0.26-0.14-0.34-0.24
		c-0.75-0.99-1.38-2.06-1.45-3.32c-0.06-1.04,0.43-1.93,1.35-2.48c0.65-0.38,1.34-0.7,2.02-1.01c1.2-0.55,2.4-1.08,3.61-1.62
		C99.12,42.38,99.13,42.41,99.14,42.44z"/>
	<g>
		<path class="st11" d="M103.14,62.64c2.3-0.07,4.61-0.15,6.91-0.22c0.23-0.01,0.47-0.04,0.7-0.04c0.54,0.01,0.78,0.22,0.84,0.75
			c0.04,0.33,0.04,0.66,0.04,0.99c0,0.27-0.15,0.45-0.41,0.48c-0.28,0.04-0.56,0.05-0.84,0.06c-4.8,0.14-9.6,0.28-14.4,0.42
			c-0.19,0.01-0.38,0-0.56-0.01c-0.38-0.02-0.64-0.25-0.69-0.6c-0.18-1.39-0.24-1.65,1.21-1.69c2.4-0.07,4.8-0.15,7.19-0.23
			C103.14,62.58,103.14,62.61,103.14,62.64z"/>
		<path class="st11" d="M118.43,63.5c0.01,0.19,0.03,0.37,0.01,0.56c-0.02,0.33-0.21,0.49-0.54,0.5c-1.69,0.04-1.71,0.2-1.98-1.67
			c-0.06-0.42,0.07-0.58,0.49-0.69c0.22-0.06,0.45-0.1,0.68-0.12c0.97-0.07,1.26,0.19,1.33,1.14c0.01,0.09,0.01,0.19,0.01,0.28
			C118.44,63.5,118.43,63.5,118.43,63.5z"/>
	</g>
	<g>
		<path class="st11" d="M73.7,18.97c0.89-2.23,1.77-4.46,2.66-6.69c0.1-0.26,0.22-0.52,0.36-0.76c0.1-0.18,0.29-0.24,0.49-0.2
			c0.18,0.03,0.36,0.09,0.54,0.15c1.16,0.42,1.18,0.43,0.72,1.59c-1.37,3.46-2.76,6.9-4.13,10.36c-0.37,0.92-0.72,1.84-1.09,2.76
			c-0.12,0.3-0.25,0.61-0.42,0.89c-0.19,0.31-0.5,0.42-0.86,0.3c-0.27-0.09-0.53-0.19-0.79-0.3c-0.4-0.17-0.52-0.38-0.41-0.76
			c0.11-0.36,0.24-0.71,0.38-1.06c0.83-2.1,1.66-4.2,2.5-6.3C73.66,18.96,73.68,18.97,73.7,18.97z"/>
		<path class="st11" d="M79.17,7.44C79,7.37,78.83,7.31,78.66,7.23c-0.25-0.11-0.32-0.32-0.26-0.57c0.08-0.31,0.17-0.63,0.28-0.93
			c0.23-0.66,0.51-0.83,1.14-0.65c0.31,0.09,0.61,0.22,0.89,0.38c0.32,0.18,0.42,0.47,0.31,0.82c-0.04,0.13-0.09,0.26-0.14,0.39
			C80.43,7.86,80.31,7.92,79.17,7.44z"/>
	</g>
</g>
<g id="science">
	<path class="st12" d="M60.74,116.76c-0.09,0.21-0.2,0.42-0.28,0.64c-0.96,2.47-3.11,3.78-5.75,3.47c-0.66-0.08-1.31-0.24-1.96-0.36
		c0,0-0.02-0.01-0.02-0.01c-0.09-0.16-0.22-0.26-0.41-0.24c-0.18-0.09-0.37-0.18-0.55-0.27c-0.28-0.5-0.74-0.82-1.15-1.2
		c0,0-0.05-0.07-0.05-0.07c0.02-0.11-0.02-0.18-0.13-0.21c0,0-0.03-0.06-0.03-0.06c0.03-0.13-0.02-0.21-0.15-0.24
		c-0.24-0.54-0.51-1.06-0.71-1.61c-0.12-0.33-0.17-0.68-0.21-1.03c-0.03-0.26,0.12-0.47,0.37-0.54c0.3-0.08,0.61-0.13,0.92-0.16
		c0.21-0.02,0.38,0.1,0.44,0.31c0.08,0.26,0.16,0.53,0.21,0.8c0.19,1.07,0.86,1.86,1.65,2.51c1.4,1.16,4.1,0.86,5.27-0.54
		c1.09-1.3,1.01-3.21-0.22-4.37c-0.42-0.4-0.88-0.78-1.41-1.05c-1.26-0.64-2.42-1.46-3.61-2.22c-0.57-0.37-1.05-0.83-1.47-1.35
		c-1.17-1.44-1.28-3.09-0.8-4.8c0.38-1.32,1.13-2.41,2.36-3.11c0.72-0.41,1.51-0.66,2.34-0.72c1.67-0.11,3.3,0.07,4.74,1.01
		c1.71,1.12,2.64,2.74,2.99,4.73c0.05,0.29-0.07,0.44-0.3,0.56c-0.33,0.17-0.68,0.18-1.03,0.18c-0.32,0-0.52-0.16-0.59-0.47
		c-0.15-0.65-0.35-1.27-0.66-1.87c-0.85-1.65-2.72-2.66-4.57-2.44c-0.55,0.07-1.08,0.15-1.58,0.41c-1.31,0.66-2.01,1.89-1.92,3.36
		c0.02,0.32,0.09,0.36,0.51,0.27c0.08-0.01,0.15-0.02,0.23-0.03c0.11-0.01,0.15,0.04,0.12,0.14c-0.01,0.04,0,0.08-0.03,0.11
		c-0.05,0.06-0.1,0.12-0.16,0.16c-0.51,0.28-0.57,0.4-0.35,0.79c0.27,0.48,0.62,0.9,1.06,1.25c0.74,0.59,1.53,1.1,2.38,1.51
		c0.78,0.38,1.51,0.84,2.21,1.34c0.99,0.7,1.71,1.59,2.13,2.74C60.89,114.97,60.83,115.86,60.74,116.76z"/>
	<path class="st12" d="M32.05,23.23c-1.09,0.83-2.19,1.64-3.26,2.48c-0.76,0.59-0.77,0.87-0.09,1.6c0.51,0.55,1.07,1.06,1.69,1.49
		c1.56,1.07,4.12,1.14,5.79-0.68c0.6-0.65,0.82-1.47,0.96-2.31c0.07-0.42,0.06-0.85,0.12-1.26c0.06-0.47,0.27-0.66,0.73-0.7
		c0.81-0.08,1.12,0.18,1.11,1.04c-0.02,2.44-1.04,4.35-3.09,5.7c-1.85,1.21-3.78,1.26-5.79,0.46c-1.78-0.7-3.09-1.96-4.22-3.43
		c-0.96-1.25-1.67-2.65-2.12-4.13c-0.65-2.14-0.43-4.23,1-6.02c1.52-1.9,3.6-2.74,6.02-1.86c2.08,0.75,3.59,2.21,4.82,3.98
		c0.25,0.35,0.19,0.65-0.22,0.98c-0.88,0.71-1.78,1.39-2.68,2.08C32.57,22.82,32.31,23.02,32.05,23.23
		C32.05,23.22,32.05,23.22,32.05,23.23z M30.08,22.36c-0.02-0.03-0.04-0.06-0.06-0.08c0.86-0.65,1.73-1.3,2.58-1.97
		c0.32-0.25,0.35-0.56,0.09-0.86c-0.7-0.85-1.53-1.54-2.58-1.9c-2.22-0.78-4.08,0.3-4.53,2.62c-0.04,0.18-0.07,0.37-0.07,0.56
		c-0.01,1.26,0.33,2.41,1.01,3.47c0.21,0.33,0.5,0.4,0.84,0.19c0.32-0.2,0.61-0.43,0.91-0.66C28.88,23.27,29.48,22.81,30.08,22.36z"
		/>
	<path class="st12" d="M14.03,84.34c-1.93,0.53-3.87,0.69-5.86,0.27c-2.52-0.53-4.09-2.17-4.76-4.52c-0.53-1.86,0.07-3.63,1.44-5.07
		c1.38-1.45,3.09-2.27,5.03-2.67c0.85-0.17,0.97-0.09,1.19,0.74c0.53,2,1.04,4,1.57,6c0.2,0.77,0.4,1.55,0.65,2.31
		c0.17,0.54,0.41,0.65,0.97,0.49c0.77-0.21,1.52-0.47,2.21-0.9c1.15-0.71,1.9-1.72,2.18-3c0.31-1.4-0.03-2.71-1.05-3.78
		c-0.59-0.62-1.34-1.01-2.1-1.4c-0.56-0.28-0.59-0.4-0.39-1c0.04-0.13,0.1-0.26,0.14-0.4c0.11-0.32,0.32-0.44,0.65-0.35
		c1.12,0.29,2.12,0.83,2.89,1.68c2.74,3.01,2.34,7.14-0.6,9.62C16.98,83.41,15.58,84.02,14.03,84.34z M10.56,78.8
		C10.56,78.8,10.57,78.8,10.56,78.8c-0.27-1.09-0.55-2.19-0.84-3.28c-0.13-0.49-0.35-0.62-0.83-0.47c-1.48,0.48-2.66,1.32-3.45,2.71
		c-0.59,1.03-0.21,2.82,0.53,3.54c1.47,1.42,3.22,1.6,5.11,1.3c0.29-0.04,0.38-0.27,0.32-0.52C11.13,80.98,10.84,79.89,10.56,78.8z"
		/>
	<path class="st12" d="M9.03,63.96c-0.35-0.03-0.71-0.06-1.06-0.09C7.48,63.75,7,63.66,6.49,63.79c-0.83-0.04-1.65-0.09-2.48-0.13
		c-0.85-0.22-1.72-0.24-2.6-0.18c-0.12-0.03-0.23-0.07-0.35-0.1C1,63.3,0.94,63.23,0.87,63.16c0,0-0.04-0.1-0.04-0.1
		c0.07-0.37,0.15-0.75,0.01-1.12c0.04-0.13,0.08-0.25,0.12-0.38c0.09-0.07,0.17-0.13,0.26-0.2c0.45,0,0.89,0.02,1.34,0
		c0.25-0.01,0.4-0.17,0.32-0.45c0.04-0.14-0.03-0.22-0.16-0.25c0,0-0.02-0.04-0.02-0.04c-0.14-0.46-0.4-0.84-0.75-1.17
		c-0.06-0.34-0.23-0.63-0.43-0.9c0.06-0.11,0.02-0.18-0.09-0.23c-0.2-0.77-0.35-1.55-0.36-2.36c-0.02-1.55,1.12-3.4,3.23-3.72
		c0.79-0.12,1.6-0.2,2.39-0.17c3.43,0.16,6.87,0.36,10.3,0.55c0.09,0.01,0.19,0.01,0.28,0.03c0.83,0.11,0.92,0.22,0.88,1.1
		c-0.01,0.19-0.02,0.38-0.03,0.56c-0.06,0.53-0.15,0.63-0.73,0.61c-1.65-0.07-3.29-0.16-4.94-0.25c-1.98-0.11-3.95-0.24-5.92-0.34
		c-0.42-0.02-0.85-0.04-1.27,0c-1.17,0.11-2.4,0.99-2.4,2.49c0,0.77,0.07,1.49,0.46,2.17c0.38,0.66,0.82,1.26,1.3,1.84
		c0.73,0.88,1.64,0.97,2.65,0.65c0.12-0.04,0.25-0.16,0.36-0.06c0.61,0.52,1.34,0.34,2.03,0.39c2.3,0.17,4.61,0.31,6.91,0.47
		c0.23,0.02,0.47,0.05,0.7,0.1c0.19,0.04,0.32,0.18,0.37,0.38c0.01,0.05,0.02,0.09,0.02,0.14c-0.05,1.2,0.27,1.52-1.35,1.45
		c-1.69-0.08-3.38-0.21-5.08-0.31c-0.33-0.02-0.66-0.01-0.99-0.01C9.84,63.82,9.44,63.85,9.03,63.96z M7.6,63.02
		c-0.05-0.06-0.09-0.15-0.15-0.17c-0.07-0.02-0.17,0.01-0.22,0.07c-0.03,0.03,0,0.18,0.04,0.2C7.39,63.18,7.51,63.14,7.6,63.02z"/>
	<path class="st12" d="M38.68,105.73c0.54-0.99,1.05-1.94,1.3-3.01c0.17-0.74,0.2-1.48,0.09-2.24c-0.39-2.48-3.13-3.73-4.87-3.01
		c-0.52,0.22-1.05,0.39-1.54,0.68c-0.79,0.47-0.94,0.4-1.42-0.44c-0.05-0.08-0.09-0.16-0.14-0.25c-0.13-0.24-0.04-0.45,0.12-0.64
		c0.06-0.07,0.14-0.13,0.22-0.18c2.1-1.24,4.31-1.68,6.57-0.53c2.34,1.19,3.27,3.27,3.23,5.82c-0.03,1.62-0.44,3.17-1.2,4.6
		c-0.87,1.63-2.03,3.05-3.51,4.18c-1.39,1.06-2.95,1.65-4.72,1.57c-3.23-0.14-5.54-2.93-5.25-6.26c0.05-0.53,0.31-0.76,0.83-0.74
		c0.23,0.01,0.46,0.07,0.7,0.08c0.36,0.02,0.47,0.26,0.49,0.56c0.02,0.37,0.01,0.75,0.01,1.13c0.01,1.61,0.83,2.64,2.27,3.23
		c1.26,0.51,2.41,0.18,3.48-0.51c1-0.64,1.77-1.54,2.42-2.53C38.08,106.75,38.38,106.21,38.68,105.73z"/>
	<path class="st12" d="M14.09,44.04c-1.17-0.72-2.3-1.48-3.27-2.45c-1.43-1.42-2.32-3.13-2.25-5.16c0.12-3.38,2.51-5.73,5.98-5.49
		c0.27,0.02,0.45,0.18,0.47,0.43c0.04,0.37,0.04,0.75,0.03,1.12c0,0.29-0.2,0.42-0.45,0.44c-0.33,0.03-0.66,0-0.99,0.02
		c-2.42,0.15-3.88,2.3-3.14,4.6c0.2,0.63,0.47,1.25,0.96,1.71c2.07,1.94,4.45,3.29,7.27,3.79c0.76,0.14,1.5,0.03,2.22-0.21
		c2.21-0.74,3.51-3.27,1.96-5.9c-0.14-0.24-0.36-0.44-0.52-0.67c-0.26-0.37-0.23-0.68,0.09-1.01c0.13-0.14,0.27-0.26,0.43-0.37
		c0.32-0.23,0.59-0.21,0.87,0.09c1.04,1.12,1.5,2.49,1.58,3.98c0.15,2.76-1.9,5.77-5.26,6.11c-1.51,0.15-3,0.23-4.41-0.48
		c-0.23-0.12-0.33-0.03-0.44,0.14c-0.13,0.21-0.29,0.42-0.55,0.3c-0.28-0.13-0.69-0.1-0.79-0.46
		C13.86,44.43,14.01,44.24,14.09,44.04z"/>
	<g>
		<path class="st12" d="M21.79,94.05c-1.68,1.51-3.36,3.03-5.04,4.54c-0.24,0.22-0.49,0.44-0.75,0.65c-0.2,0.17-0.43,0.17-0.65,0.02
			c-0.19-0.13-0.38-0.28-0.54-0.45c-0.63-0.68-0.64-0.97,0.09-1.63c2.83-2.56,5.67-5.1,8.51-7.65c0.7-0.63,1.4-1.26,2.12-1.87
			c0.32-0.27,0.67-0.51,1.03-0.74c0.22-0.14,0.45-0.11,0.64,0.08c0.26,0.27,0.51,0.55,0.76,0.83c0.18,0.2,0.2,0.43,0.01,0.63
			c-0.29,0.31-0.59,0.61-0.9,0.89c-1.75,1.58-3.5,3.15-5.25,4.73C21.81,94.08,21.8,94.06,21.79,94.05z"/>
		<path class="st12" d="M11.64,101.83c0.12,0.14,0.25,0.27,0.37,0.41c0.17,0.21,0.14,0.43-0.02,0.63c-0.21,0.25-0.43,0.49-0.66,0.71
			c-0.5,0.49-0.83,0.52-1.31,0.08c-0.24-0.22-0.45-0.47-0.63-0.73c-0.21-0.3-0.17-0.6,0.08-0.88c0.09-0.1,0.2-0.19,0.3-0.29
			C10.7,100.89,10.83,100.89,11.64,101.83z"/>
	</g>
</g>
</svg>
