<?xml version="1.0" encoding="utf-8"?>
<!-- Generator: Adobe Illustrator 25.0.0, SVG Export Plug-In . SVG Version: 6.00 Build 0)  -->
<svg version="1.1" xmlns="http://www.w3.org/2000/svg" xmlns:xlink="http://www.w3.org/1999/xlink" x="0px" y="0px"
	 viewBox="0 0 193.76 87.82" style="enable-background:new 0 0 193.76 87.82;" xml:space="preserve">
<style type="text/css">
	.st0{fill:#0082C2;}
	.st1{fill:#312782;}
	.st2{fill:#CE144A;}
	.st3{fill:#DD185A;}
	.st4{fill:#FDFDFC;}
	.st5{fill:#FAE300;}
	.st6{fill:#3B55A1;}
	.st7{fill:#62BFC0;}
	.st8{fill:#DA696A;}
	.st9{fill:none;stroke:#80D891;stroke-width:1.5;stroke-miterlimit:10;}
	.st10{fill:#4B9B58;}
	.st11{fill:#E72B87;}
	.st12{fill:#FAB937;}
</style>
<g id="base_x5F_cohete">
</g>
<g id="cohete_x5F_azul">
</g>
<g id="cohete_x5F_rojo_x5F_tubos">
</g>
<g id="cohete_x5F_alas">
</g>
<g id="dedo">
</g>
<g id="amarillo">
</g>
<g id="title">
</g>
<g id="autor">
	<g>
		<ellipse class="st9" cx="96.44" cy="42.65" rx="86.2" ry="32.39"/>
		<path class="st9" d="M96.3,75.04c-0.33,0-0.67,0-1,0c-35.15,0-63.65-14.5-63.65-32.39s28.5-32.39,63.65-32.39"/>
		<path class="st9" d="M96.59,75.04c-0.22,0-0.45,0-0.67,0c-23.59,0-42.72-14.5-42.72-32.39s19.13-32.39,42.72-32.39"/>
		<path class="st9" d="M96.44,75.04c-0.11,0-0.22,0-0.33,0c-11.72,0-21.22-14.5-21.22-32.39s9.5-32.39,21.22-32.39"/>
		<path class="st9" d="M155.55,18.6c0,0.04,0.01,0.08,0.01,0.11c0,3.98-26.69,7.2-59.6,7.2s-59.6-3.23-59.6-7.2"/>
		<path class="st9" d="M155.55,66.37c0-0.04,0.01-0.07,0.01-0.11c0-3.82-26.69-6.92-59.6-6.92s-59.6,3.1-59.6,6.92"/>
		<path class="st9" d="M96.3,75.04c0.33,0,0.67,0,1,0c35.15,0,63.65-14.5,63.65-32.39s-28.5-32.39-63.65-32.39"/>
		<path class="st9" d="M96,75.04c0.22,0,0.45,0,0.67,0c23.59,0,42.72-14.5,42.72-32.39s-19.13-32.39-42.72-32.39"/>
		<path class="st9" d="M96.15,75.04c0.11,0,0.22,0,0.33,0c11.72,0,21.22-14.5,21.22-32.39s-9.5-32.39-21.22-32.39"/>
		<line class="st9" x1="96" y1="10.26" x2="96" y2="75.43"/>
		<path class="st9" d="M182.21,42.81H10.12C10.12,42.81,181.89,43.08,182.21,42.81z"/>
	</g>
	<g>
		<path class="st10" d="M85.43,34.92c0.52,0.8,0.35,1.62,0.04,2.44c-0.45,1.2-0.9,2.4-1.34,3.6c-0.18,0.48-0.33,0.96-0.54,1.43
			c-0.22,0.5-0.2,0.98,0,1.48c0.26,0.65,0.5,1.31,0.75,1.97c0.37,0.97,0.74,1.94,1.11,2.91c0.07,0.18,0.12,0.37,0.18,0.55
			c0.52,1.54-1.04,2.68-2.13,2.55c-0.78-0.09-1.31-0.46-1.65-1.13c-0.16-0.3-0.28-0.62-0.4-0.93c-0.67-1.76-1.33-3.53-2-5.29
			c-0.04-0.11-0.08-0.23-0.14-0.33c-0.16-0.29-0.38-0.42-0.65-0.35c-0.29,0.08-0.54,0.24-0.6,0.56c-0.03,0.16-0.02,0.34-0.02,0.51
			c0,1.53,0,3.05,0,4.58c0,0.22-0.02,0.44-0.01,0.65c0.04,1.03-1.09,1.9-2.01,1.9c-1.18,0-1.99-0.86-2.08-1.83
			c-0.05-0.6-0.04-1.21-0.04-1.81c0.01-2.45,0.03-4.89,0.03-7.34c0-1.43-0.01-2.86-0.02-4.28c0-0.31,0.01-0.63,0.07-0.94
			c0.23-1.06,1.07-1.7,2.16-1.61c0.5,0.04,0.94,0.22,1.28,0.6c0.16,0.18,0.3,0.38,0.44,0.57c-0.01,0.16,0.06,0.29,0.15,0.42
			c0.02,0.34,0.04,0.68,0.06,1.03c-0.04,0.1-0.04,0.2,0.01,0.3c-0.07,1.01-0.04,2.03,0,3.04c-0.1,0.5-0.05,1.01-0.04,1.51
			c0,0.14,0.05,0.29,0.11,0.42c0.23,0.48,0.77,0.53,1.11,0.11c0.14-0.17,0.22-0.37,0.3-0.57c0.48-1.29,0.96-2.57,1.44-3.86
			c0.3-0.79,0.57-1.59,0.89-2.37c0.4-0.96,1.28-1.41,2.29-1.2c0.23,0.05,0.46,0.15,0.68,0.22c0.05,0.03,0.1,0.06,0.15,0.08
			c0.01,0.07,0.06,0.11,0.13,0.11c0,0,0.04,0.03,0.04,0.03c0,0.07,0.04,0.11,0.11,0.12c0,0,0.02,0.03,0.02,0.03
			C85.31,34.85,85.35,34.9,85.43,34.92z"/>
		<path class="st10" d="M111.74,35.06c0.02,0.05,0.03,0.1,0.05,0.14c-0.02,0.08,0.01,0.13,0.09,0.16c0.04,0.1,0.08,0.19,0.12,0.29
			c-0.01,0.02-0.03,0.04-0.02,0.05c0.02,0.03,0.04,0.05,0.07,0.07c0,0,0.01,0.02,0.01,0.02c0.01,0.27,0.11,0.52,0.28,0.73
			c0.12,0.34,0.24,0.68,0.37,1.02c-0.03,0.07-0.01,0.11,0.06,0.14c0,0,0,0.01,0,0.01c0,0.05-0.01,0.1,0,0.14
			c0.51,1.35,1.01,2.71,1.53,4.06c0.04,0.11,0.11,0.22,0.18,0.31c0.19,0.25,0.43,0.33,0.7,0.24c0.27-0.09,0.48-0.24,0.5-0.55
			c0.01-0.14-0.01-0.29-0.02-0.43c0.01-0.31,0.02-0.62,0.02-0.94c0-2.07-0.01-4.13-0.02-6.2c0.17-0.19,0.34-0.38,0.59-0.45
			c0.22-0.01,0.41,0.04,0.59,0.18C117,34.42,117,34.8,117,35.19c0,1.45,0,2.9,0.01,4.35c0.02,2.56,0.03,5.13,0.05,7.69
			c0.01,0.89,0.02,1.79,0.02,2.68c-0.1,0.48-0.24,0.93-0.63,1.27c-0.26,0.23-0.53,0.41-0.9,0.42c-0.14,0-0.29,0.02-0.43,0.05
			c-0.37,0.09-0.72,0.04-1.04-0.17c-0.39-0.25-0.75-0.53-0.92-0.99c-0.19-0.52-0.4-1.04-0.6-1.56c-0.6-1.58-1.19-3.17-1.78-4.75
			c-0.07-0.18-0.14-0.36-0.23-0.53c-0.14-0.3-0.39-0.41-0.71-0.36c-0.33,0.06-0.58,0.31-0.6,0.63c-0.01,0.17,0,0.34,0,0.51
			c0,2.03,0.01,4.07,0.01,6.1c0,0.19,0.01,0.39-0.02,0.58c-0.04,0.28-0.19,0.49-0.46,0.6c-0.26,0.1-0.54,0.01-0.7-0.22
			c-0.12-0.16-0.17-0.35-0.18-0.54c-0.02-0.29-0.04-0.58-0.04-0.87c-0.01-2.28-0.03-4.55-0.02-6.83c0.01-2.47,0.04-4.94,0.06-7.4
			c0-0.22,0.03-0.43,0.04-0.65c0.1-0.19,0.21-0.38,0.31-0.57c0,0,0,0,0,0c0.12-0.08,0.24-0.16,0.36-0.24
			c0.57-0.39,1.19-0.52,1.86-0.33c0.23,0.07,0.44,0.18,0.66,0.27c0.17,0.19,0.34,0.38,0.51,0.57
			C111.64,34.99,111.67,35.04,111.74,35.06z"/>
		<path class="st10" d="M127.46,36.05c0.06,0.15,0.12,0.31,0.18,0.46c0.14,0.73,0.13,1.47,0.12,2.22c-0.01,0.38,0.02,0.76,0.03,1.15
			c0,0.14-0.01,0.28-0.01,0.43c-0.05,0.09-0.05,0.19-0.02,0.29c-0.12,0.76-0.44,1.43-0.98,1.98c-0.07,0.07-0.13,0.15-0.18,0.23
			c-0.06,0.09-0.04,0.18,0.02,0.27c0.03,0.04,0.07,0.07,0.1,0.1c0.74,0.65,1.03,1.5,1.04,2.46c0,0.85-0.01,1.69-0.03,2.54
			c-0.05,1.5-0.74,2.62-2.14,3.17c-2.33,0.92-4.55,0.72-6.55-0.88c-0.51-0.41-0.8-0.97-0.8-1.64c0-0.75,0-1.5,0-2.25
			c-0.01-1.6-0.02-3.19-0.03-4.79c0.06-0.4,0.12-0.79-0.2-1.12c-0.03-0.03-0.01-0.17,0.03-0.19c0.31-0.2,0.2-0.48,0.17-0.75
			c-0.01-0.72,0-1.45-0.02-2.17c-0.01-0.66,0.03-1.3,0.39-1.88c0.08-0.06,0.15-0.11,0.23-0.17c0.62-0.51,1.28-0.95,2.05-1.19
			c1.13-0.36,2.27-0.48,3.43-0.24c1,0.21,1.96,0.53,2.67,1.34c0.04,0.05,0.12,0.07,0.18,0.11c0,0,0.01,0.01,0.01,0.01
			C127.21,35.72,127.27,35.92,127.46,36.05z M123.07,36.06c-0.32,0.16-0.52,0.4-0.56,0.75c-0.21,0.27-0.16,0.6-0.16,0.91
			c-0.01,1.18,0,2.37,0,3.55c0,0.22,0.03,0.43,0.07,0.65c0.03,0.16,0.13,0.25,0.3,0.25c0.65-0.01,1.3,0,1.95-0.01
			c0.38-0.01,0.69-0.17,0.98-0.42c0.48-0.4,0.71-0.91,0.72-1.52c0.02-0.87,0.01-1.74-0.01-2.61c0-0.24-0.06-0.48-0.09-0.72
			c-0.04-0.3-0.19-0.54-0.41-0.74C125.03,35.36,124.01,35.33,123.07,36.06z M122.36,46.16c0,0-0.01,0-0.01,0c0,0.7-0.01,1.4,0,2.1
			c0.02,1.01,0.73,1.92,1.99,1.97c0.66,0.03,1.17-0.23,1.58-0.73c0.32-0.39,0.46-0.85,0.47-1.34c0.02-0.92,0-1.84,0-2.75
			c0-0.1-0.02-0.19-0.03-0.29c-0.14-0.81-0.71-1.37-1.53-1.52c-0.46-0.08-0.91-0.07-1.37-0.06c-0.3,0.01-0.65-0.08-0.78,0.33
			c-0.36-0.06-0.3,0.2-0.3,0.4C122.36,44.91,122.36,45.54,122.36,46.16z"/>
		<path class="st10" d="M95.61,35.92c0.1,0.3,0.19,0.59,0.29,0.89c0.01,0.19,0.02,0.39,0.03,0.58c0.02,0.68,0.03,1.35,0.05,2.03
			c0,0.05,0,0.1-0.01,0.15c-0.05,0.58-0.05,1.15-0.01,1.73c-0.06,0.2-0.06,0.41,0,0.61c-0.01,1.45-0.02,2.9-0.03,4.35
			c0,0.68,0.01,1.35,0.01,2.03c0,0.05-0.01,0.1-0.01,0.15c-0.23,1.41-1.03,2.39-2.36,2.89c-2.26,0.84-4.37,0.52-6.29-0.94
			c-0.42-0.32-0.69-0.74-0.74-1.28c-0.03-0.29-0.07-0.58-0.07-0.87c0-2.78,0.01-5.56,0.02-8.35c0-0.82,0.02-1.65-0.03-2.47
			c-0.07-1.18,0.47-1.96,1.44-2.56c1.18-0.71,2.45-1.06,3.8-0.97c1.16,0.08,2.29,0.37,3.22,1.15c0.09,0.18,0.21,0.33,0.38,0.43
			c0.07,0.1,0.14,0.2,0.21,0.3C95.51,35.86,95.54,35.9,95.61,35.92z M94.59,42.81c0.01,0,0.02,0,0.03,0c0-1.55,0-3.1,0-4.65
			c0-0.34-0.01-0.68-0.05-1.02c-0.11-0.79-0.65-1.37-1.41-1.57c-1.3-0.35-2.52,0.77-2.52,1.76c0,0.27-0.03,0.53-0.04,0.8
			c-0.01,0.9-0.01,1.79-0.01,2.69c0.01,2.3,0.02,4.6,0.03,6.91c0,0.29,0,0.59,0.06,0.87c0.18,0.73,0.6,1.26,1.36,1.46
			c0.8,0.21,1.49,0.03,2.03-0.6c0.37-0.44,0.54-0.96,0.53-1.54C94.58,46.2,94.59,44.5,94.59,42.81z"/>
		<path class="st10" d="M106.22,35.78c0.04,0.05,0.07,0.11,0.11,0.16c0,0-0.01,0.06-0.01,0.06l0.05,0.03
			c0.03,0.06,0.06,0.13,0.08,0.19c-0.03,0.06-0.01,0.1,0.06,0.12c0.02,0.06,0.04,0.11,0.06,0.17c-0.03,0.07,0,0.13,0.07,0.16
			c0.22,1.23,0.11,2.47,0.09,3.7c-0.01,0.8-0.31,1.51-0.85,2.11c-0.1,0.11-0.18,0.23-0.27,0.34c-0.06,0.09-0.06,0.18,0.01,0.27
			c0.12,0.15,0.25,0.3,0.37,0.45c0.45,0.54,0.7,1.16,0.7,1.87c0.01,1.84,0.01,3.68,0.01,5.52c0,0.1-0.01,0.19-0.03,0.29
			c-0.06,0.3-0.29,0.52-0.58,0.57c-0.3,0.05-0.57-0.09-0.71-0.38c-0.09-0.18-0.11-0.37-0.11-0.57c-0.01-0.51-0.02-1.02-0.01-1.53
			c0.01-1.19,0.04-2.37,0.06-3.56c0-0.15,0.01-0.29-0.01-0.44c-0.07-0.82-0.6-1.46-1.39-1.66c-0.09-0.02-0.19-0.05-0.29-0.05
			c-0.65-0.02-1.31-0.04-1.96-0.04c-0.32,0-0.43,0.13-0.44,0.45c-0.02,0.58-0.03,1.16-0.04,1.74c-0.01,1.33-0.02,2.67-0.02,4
			c-0.01,1.39-1.19,2.34-2.54,2.03c-0.87-0.2-1.53-1.04-1.55-2.04c-0.02-0.85,0-1.7,0.01-2.54c0.02-1.89,0.04-3.78,0.05-5.67
			c0.01-1.48,0-2.96,0.01-4.43c0-0.24,0.03-0.48,0.05-0.72c0.29-0.48,0.65-0.88,1.13-1.17c0.32-0.2,0.66-0.37,1-0.55
			c0.21-0.11,0.42-0.21,0.64-0.32c0.11,0.01,0.22-0.02,0.3-0.1c0.06,0.05,0.1,0.03,0.12-0.04c0,0,0.02,0,0.02,0
			c0.17,0.05,0.33,0.03,0.5,0c1.11-0.23,2.19-0.14,3.26,0.22c0.2,0.07,0.41,0.11,0.62,0.16c0.08,0.03,0.16,0.07,0.23,0.1
			C105.41,35.04,105.82,35.41,106.22,35.78z M101.28,39.64c0,0-0.01,0-0.01,0c0,0.41,0,0.82,0,1.23c0,0.36,0,0.72,0.02,1.09
			c0.01,0.26,0.1,0.35,0.36,0.35c0.6,0.01,1.21,0.05,1.81-0.03c1.17-0.15,1.77-0.81,1.89-1.94c0.02-0.14,0.02-0.29,0.02-0.43
			c-0.01-0.87-0.02-1.73-0.03-2.6c0-0.3-0.11-0.56-0.29-0.81c-0.52-0.72-1.42-1.01-2.32-0.75c-0.86,0.25-1.42,0.96-1.44,1.86
			C101.26,38.29,101.28,38.96,101.28,39.64z"/>
		<path class="st10" d="M167.7,36.09c0-0.29,0.01-0.58,0-0.87c-0.02-0.46,0.16-0.79,0.58-0.99c0.2,0.03,0.39,0.07,0.59,0.1
			c0.06,0.05,0.12,0.1,0.18,0.15c0.12,0.3,0.12,0.61,0.12,0.93c0.01,5.1,0.03,10.19,0.04,15.29c0,0.36-0.03,0.72-0.05,1.08
			c-0.04,0.03-0.08,0.06-0.11,0.1c-0.25,0.26-0.55,0.31-0.86,0.17c-0.3-0.13-0.4-0.4-0.41-0.71c-0.01-0.41-0.05-0.83-0.02-1.23
			c0.1-1.26,0.04-2.52,0.06-3.78c0.01-0.75,0-1.5,0-2.25c0-0.36-0.07-0.67-0.43-0.85c-0.11-0.03-0.22-0.1-0.34-0.1
			c-0.77-0.02-1.54-0.02-2.31-0.03c-0.1,0-0.19,0.02-0.29,0.04c-0.34,0.08-0.56,0.28-0.59,0.64c-0.02,0.26-0.03,0.53-0.03,0.79
			c0.01,2.02,0.04,4.04-0.02,6.07c-0.11,0.21-0.19,0.44-0.33,0.63c-0.75,1.02-2.74,1.31-3.51-0.35c-0.15-0.31-0.27-0.6-0.22-0.95
			c0.02-0.16-0.02-0.33-0.03-0.5c0.02-0.09,0.06-0.18,0.06-0.28c0-1.12-0.01-2.25-0.01-3.37c0-0.04-0.03-0.09-0.05-0.13
			c0-0.24,0-0.49,0-0.73c0.09-0.34,0.08-0.68,0-1.02c-0.01-1.88-0.01-3.76-0.02-5.64c0-0.63,0-1.25-0.02-1.88
			c-0.01-0.42,0.05-0.82,0.21-1.2c0.44-0.47,0.96-0.81,1.57-1.02c0.1,0,0.2-0.01,0.29-0.01c0.62,0.14,1.24,0.3,1.7,0.79
			c0,0.04,0.02,0.07,0.06,0.09c0.01,0.07-0.01,0.16,0.03,0.21c0.25,0.41,0.25,0.87,0.25,1.33c0,1.33,0.01,2.66,0.02,3.98
			c0,0.24,0.01,0.48,0.04,0.72c0.03,0.24,0.18,0.39,0.43,0.43c0.14,0.02,0.29,0.05,0.43,0.05c0.8,0.01,1.59,0.02,2.39,0
			c0.49-0.01,0.71-0.23,0.73-0.71c0.02-0.53-0.01-1.06-0.03-1.59c-0.01-0.46,0.04-0.92-0.09-1.37c0-0.15,0-0.29,0-0.44
			c0.08-0.19,0.08-0.39,0-0.58c0-0.1,0-0.2,0.01-0.29C167.82,36.57,167.8,36.33,167.7,36.09z"/>
		<path class="st10" d="M137.12,39.7c0.03-0.47,0.02-0.95-0.03-1.42c0.09-0.83,0-1.66,0.03-2.5c0.02-0.11,0.03-0.21,0.05-0.32
			c0.05-0.02,0.07-0.06,0.04-0.11c0.13-0.21,0.26-0.42,0.39-0.63c0.16-0.11,0.31-0.23,0.48-0.33c0.89-0.51,2.37-0.4,2.95,0.89
			c0.14,0.32,0.15,0.66,0.14,0.99c-0.01,1.64,0.02,3.28,0.02,4.92c0,2.18,0.02,4.35,0.03,6.53c0,0.22,0.02,0.43,0.02,0.65
			c-0.01,0.91,0.94,1.78,1.92,1.83c1.21,0.06,2.07-0.83,2.04-2.09c0.08-0.53,0.06-1.06,0.01-1.59c0.06-0.09,0.07-0.18,0.03-0.28
			c-0.01-1.31-0.02-2.61-0.03-3.92c-0.01-0.75-0.02-1.5-0.01-2.25c0-0.25-0.05-0.42-0.34-0.44c-0.05,0-0.1-0.1-0.06-0.18
			c0.01-0.02,0.08-0.02,0.12-0.02c0.07,0.01,0.14,0.03,0.21,0.04c0.09-0.19,0.05-0.39,0.05-0.58c0-1.28,0.01-2.57-0.02-3.85
			c-0.01-0.47,0.13-0.8,0.6-0.95c0.07,0.03,0.13,0.03,0.18-0.04c0.03,0.02,0.07,0.03,0.11,0.02c0.07,0.09,0.17,0.12,0.28,0.1
			c0.06,0.05,0.12,0.09,0.18,0.14c0.12,0.25,0.08,0.52,0.08,0.78c0.01,1.86,0.01,3.72,0.01,5.58c0,0.34,0,0.68,0,1.01
			c0,0.34,0,0.68,0.01,1.01c0,0.34,0.01,0.68,0.01,1.01c0,0.34,0,0.68,0,1.01c0.01,0.34-0.04,0.69,0.04,1.01
			c0.09,0.34-0.07,0.64-0.05,0.96c0.05,0.77-0.01,1.54-0.09,2.31c-0.23,0.75-0.6,1.4-1.26,1.85c-0.23,0.16-0.49,0.29-0.74,0.44
			c-0.33,0.07-0.66,0.14-0.95,0.32c0,0-0.01,0-0.01,0c-0.3-0.02-0.59,0.04-0.87,0.14c-0.05,0-0.1,0.01-0.14,0.01
			c-0.39,0-0.78,0-1.17,0l-0.07-0.02c0,0-0.07,0.01-0.07,0.01c-0.23-0.1-0.47-0.16-0.73-0.13l-0.07-0.02l-0.07,0
			c-0.09-0.08-0.18-0.12-0.3-0.09c-0.09-0.02-0.18-0.04-0.28-0.06c-0.08-0.1-0.18-0.14-0.3-0.11c-0.14-0.06-0.27-0.12-0.41-0.18
			c-0.03-0.08-0.09-0.12-0.17-0.1c-0.1-0.06-0.2-0.11-0.31-0.17c-0.02-0.07-0.06-0.1-0.13-0.08c-0.13-0.08-0.27-0.16-0.4-0.23
			c-0.38-0.32-0.65-0.73-0.9-1.15c-0.01-0.09-0.02-0.19-0.04-0.28c0.05-0.3,0.05-0.6-0.02-0.9c0-0.19,0-0.37,0-0.56
			c0.08-1.17,0.04-2.34-0.01-3.52c0-0.19,0-0.37,0.01-0.56c0.06-0.3,0.05-0.6-0.01-0.9c0-0.23,0-0.46,0-0.7
			c0.06-0.3,0.06-0.6-0.01-0.91c0-0.23,0-0.46,0.01-0.69C137.18,40.21,137.17,39.96,137.12,39.7z"/>
		<path class="st10" d="M147.2,35.06c0.01-0.14,0.02-0.28,0.03-0.43c0.08-0.03,0.12-0.08,0.12-0.16c0,0,0.01-0.02,0.01-0.02
			c0.08-0.01,0.13-0.05,0.14-0.13c0.05-0.03,0.1-0.06,0.15-0.09c0.11,0.02,0.21,0.01,0.3-0.06c0.15-0.01,0.29-0.01,0.44-0.02
			c0.1,0.05,0.19,0.05,0.29,0c0.19,0,0.39,0,0.58,0c0.29,0.09,0.57,0.06,0.86,0.01c0.24-0.01,0.49-0.01,0.73-0.02
			c0.07,0.01,0.14,0.04,0.21,0.04c1.51,0,3.02,0,4.53,0c0.07,0,0.14-0.03,0.21-0.04c0.53,0,1.06,0,1.59,0c0.15,0.06,0.3,0.06,0.45,0
			c0.34,0.01,0.69,0.02,1.03,0.03c0.41,0.2,0.56,0.52,0.43,0.96c-0.01,0.02,0,0.05-0.01,0.07c-0.21,0.22-0.47,0.32-0.78,0.32
			c-0.63-0.01-1.26,0-1.89,0c-0.17,0-0.34,0-0.51,0.01c-0.49,0.04-0.79,0.35-0.8,0.85c-0.01,0.22,0.02,0.44,0.02,0.65
			c0.02,2.96,0.04,5.91,0.06,8.87c0.01,1.19,0.01,2.37,0,3.56c0,0.39-0.03,0.77-0.1,1.15c-0.23,1.22-2.14,1.99-3.3,0.96
			c-0.44-0.39-0.69-0.86-0.71-1.45c-0.01-0.36-0.02-0.73-0.02-1.09c-0.01-2.83,0.02-5.67-0.05-8.5c-0.03-1.21-0.01-2.42-0.01-3.63
			c0-0.29-0.01-0.58-0.04-0.87c-0.04-0.31-0.15-0.44-0.45-0.48c-0.21-0.03-0.43-0.04-0.65-0.04c-0.65-0.01-1.31-0.02-1.96,0
			c-0.34,0.01-0.61-0.09-0.84-0.34C147.23,35.15,147.21,35.1,147.2,35.06z"/>
		<path class="st10" d="M136.16,51.8c-1.26-0.01-2.51-0.03-3.77-0.03c-0.63,0-1.25-0.06-1.88-0.12c-0.27-0.03-0.51-0.12-0.73-0.29
			c-0.02-0.02-0.04-0.04-0.05-0.07c-0.61-0.34-0.85-0.9-0.86-1.57c-0.01-1.07-0.02-2.13-0.02-3.2c0-3.05-0.01-6.11-0.01-9.16
			c0-0.27,0.01-0.54-0.02-0.8c-0.07-0.54,0.01-1.06,0.2-1.57c0,0,0.04-0.03,0.04-0.03l-0.02-0.05c0.04-0.06,0.09-0.12,0.13-0.19
			c0.17-0.13,0.34-0.27,0.52-0.39c0.86-0.57,1.89-0.48,2.64,0.27c0.39,0.39,0.52,0.85,0.52,1.38c0,1.38,0.01,2.76,0.01,4.14
			c0,1.72-0.01,3.43,0,5.15c0.01,1.06,0.04,2.13,0.06,3.19c0.01,0.51,0.22,0.92,0.57,1.29c0.43,0.46,0.95,0.66,1.55,0.67
			c0.58,0.02,1.16,0.01,1.74,0.02c0.19,0,0.38,0.01,0.55,0.13c0.21,0.16,0.3,0.37,0.34,0.62c-0.07,0.14-0.14,0.28-0.21,0.42
			c-0.29,0.05-0.58,0.1-0.87,0.14l-0.07-0.01c0,0-0.07,0.02-0.07,0.02C136.36,51.8,136.26,51.8,136.16,51.8z"/>
		<path class="st10" d="M65.87,51.98c-0.54-0.01-0.91-0.55-0.66-1.04c0.28-0.56,0.47-1.16,0.72-1.73c0.4-0.9,0.78-1.82,1.16-2.73
			c0.05-0.13,0.12-0.26,0.11-0.42c-0.01-0.07-0.01-0.16,0.03-0.2c0.42-0.38,0.5-0.92,0.71-1.41c0.39-0.91,0.75-1.83,1.13-2.74
			c0.81-1.94,1.62-3.88,2.44-5.82c0.13-0.31,0.26-0.62,0.39-0.94c0.1-0.25,0.25-0.47,0.46-0.64c0.2-0.17,0.54-0.21,0.74-0.07
			c0.23,0.16,0.4,0.36,0.34,0.67c-0.05,0.21-0.11,0.42-0.2,0.62c-0.77,1.83-1.54,3.65-2.3,5.48c-0.68,1.63-1.35,3.26-2.02,4.89
			c-0.69,1.68-1.37,3.36-2.06,5.03c-0.08,0.2-0.18,0.4-0.27,0.6C66.44,51.86,66.18,52,65.87,51.98z"/>
		<path class="st10" d="M34.18,43.84c0-1.19,0.03-2.23-0.01-3.27c-0.03-0.92-0.04-1.84-0.02-2.76c0-0.17,0.01-0.34,0.03-0.51
			c0.08-0.6,0.34-1.1,0.82-1.48c0.55-0.45,1.16-0.8,1.82-1.03c1.65-0.58,3.28-0.54,4.86,0.24c1.04,0.51,1.68,1.34,1.88,2.5
			c0.06,0.36,0.05,0.72,0.05,1.08c0.01,2.76,0.03,5.52,0.04,8.28c0,0.58-0.01,1.16-0.01,1.74c0.01,1.7-0.81,2.86-2.33,3.51
			c-1.96,0.83-3.87,0.69-5.7-0.4c-0.27-0.16-0.51-0.36-0.75-0.57c-0.4-0.34-0.66-0.78-0.67-1.32c-0.04-1.26-0.08-2.52-0.07-3.77
			C34.13,45.29,34.21,44.49,34.18,43.84z M42.26,43.45c0,0-0.01,0-0.01,0c0-1.55,0-3.1,0-4.64c0-0.34,0-0.68-0.03-1.02
			c-0.07-0.76-0.63-1.51-1.31-1.67c-1.48-0.35-2.52,0.69-2.58,1.75c-0.02,0.29-0.03,0.58-0.03,0.87c0.01,3.34,0.02,6.68,0.03,10.02
			c0,0.34,0.02,0.68,0.15,1c0.22,0.54,0.58,0.95,1.15,1.12c1.08,0.32,2.58-0.33,2.63-1.83c0-0.07,0.01-0.15,0.01-0.22
			C42.26,47.03,42.26,45.24,42.26,43.45z"/>
		<path class="st10" d="M54.5,43.35c0,2.42,0,4.85,0,7.27c0,0.34-0.02,0.68-0.03,1.02c-0.01,0.27-0.14,0.46-0.37,0.58
			c-0.36,0.19-0.75,0.06-0.91-0.31c-0.13-0.3-0.13-0.62-0.13-0.93c0.01-0.65,0.03-1.31,0.03-1.96c0.02-1.57,0.03-3.15,0.04-4.72
			c0-0.12,0-0.24-0.02-0.36c-0.06-0.36-0.26-0.55-0.63-0.58c-0.17-0.01-0.34-0.01-0.51-0.01c-0.61,0.01-1.21,0.02-1.82,0.04
			c-0.15,0-0.29,0-0.43,0.03c-0.39,0.08-0.62,0.35-0.64,0.76c-0.01,0.15,0,0.29,0,0.44c0,1.72,0,3.44,0,5.16
			c0,0.29,0,0.58-0.03,0.87c-0.1,1.13-1.19,2.13-2.56,1.84c-0.75-0.16-1.27-0.68-1.49-1.44c-0.08-0.3-0.1-0.62-0.1-0.94
			c0.01-3.8,0.01-7.61,0.02-11.41c0-0.63-0.02-1.26-0.01-1.89c0-0.51,0.06-1,0.39-1.44c0.61-0.81,1.68-1.08,2.59-0.62
			c0.77,0.38,1.17,0.98,1.17,1.85c0,1.33,0.01,2.67,0.01,4c0,0.27,0,0.53,0.02,0.8c0.04,0.45,0.26,0.67,0.7,0.66
			c0.82-0.01,1.65-0.04,2.47-0.06c0.02,0,0.05,0,0.07-0.01c0.65-0.07,0.8-0.22,0.8-0.87c-0.01-1.41-0.03-2.81-0.04-4.22
			c-0.01-0.56-0.02-1.11-0.01-1.67c0-0.49,0.26-0.79,0.63-0.82c0.31-0.03,0.79,0.37,0.76,0.82c-0.02,0.29,0.01,0.58,0.01,0.87
			C54.49,38.5,54.49,40.93,54.5,43.35C54.49,43.35,54.5,43.35,54.5,43.35z"/>
		<path class="st10" d="M33.26,41.04c0,1.04-0.03,2.08,0.01,3.12c0.04,0.92-0.35,1.58-1.08,2.08c-0.95,0.65-2,1.08-3.16,1.18
			c-0.29,0.03-0.58,0.04-0.87,0.07c-0.26,0.03-0.32,0.1-0.32,0.38c0,0.97-0.04,1.94,0.02,2.91c0.06,1.02-0.71,1.99-1.96,2.13
			c-1.13,0.13-2.2-0.88-2.23-1.93c-0.03-1.28-0.02-2.57-0.03-3.85c0.18-0.53-0.03-1.05-0.03-1.57c0.01-1.76-0.01-3.53,0-5.3
			c0-0.31-0.1-0.61-0.06-0.92c0.04-0.31,0.02-0.63,0.04-0.94c0.06-1.3,0.57-2.34,1.74-2.97c1.16-0.62,2.38-0.88,3.71-0.76
			c1.14,0.1,2.16,0.49,3.11,1.1c0.72,0.46,1.12,1.1,1.1,1.99C33.23,38.86,33.25,39.95,33.26,41.04
			C33.25,41.04,33.25,41.04,33.26,41.04z M29.14,41.2c-0.01,0-0.02,0-0.04,0c0-0.82,0-1.65,0-2.47c0-0.07,0-0.15,0-0.22
			c0.01-0.32-0.07-0.62-0.19-0.92c-0.3-0.72-0.95-1.35-2.15-1.23c-0.79,0.08-1.61,0.85-1.72,1.64c-0.06,0.41-0.08,0.82-0.08,1.23
			c0.01,1.14,0.01,2.28,0.02,3.41c0.01,0.51,0.02,1.02,0.07,1.52c0.07,0.68,0.43,1.19,1.05,1.46c0.62,0.27,1.27,0.3,1.89-0.02
			c0.78-0.4,1.16-1.05,1.15-1.94C29.13,42.85,29.14,42.03,29.14,41.2z"/>
		<path class="st10" d="M64.64,51.21c0.02,0.19,0.07,0.39-0.05,0.56c-0.14,0.19-0.35,0.25-0.57,0.28c-0.12,0.02-0.24,0.02-0.36,0.02
			c-1.82,0.04-3.63,0.08-5.45,0.12c-0.34,0.01-0.69-0.04-1-0.15c-0.71-0.25-1.16-0.78-1.3-1.52c-0.08-0.4-0.09-0.82-0.09-1.23
			c0.01-2.57,0.04-5.14,0.05-7.7c0.01-1.47-0.01-2.94-0.02-4.42c0-0.36-0.01-0.73,0.02-1.09c0.08-0.96,0.92-1.73,1.89-1.78
			c1.05-0.05,1.94,0.61,2.1,1.62c0.07,0.48,0.09,0.97,0.09,1.45c0,2.86-0.01,5.72-0.01,8.58c0,0.94,0.01,1.89,0.02,2.83
			c0,0.34,0.03,0.68,0.24,0.97c-0.01,0.07,0.03,0.11,0.1,0.12c0,0,0.02,0.03,0.02,0.03c0,0.08,0.04,0.13,0.12,0.14
			c0,0,0.01,0.02,0.01,0.02c0,0.09,0.04,0.13,0.13,0.13c0,0,0.01,0.01,0.01,0.01c0.33,0.46,0.83,0.55,1.33,0.57
			c0.76,0.03,1.53-0.01,2.3-0.01c0,0,0.03,0.02,0.03,0.02c0.01,0.07,0.05,0.1,0.12,0.1c0,0,0.05,0.04,0.05,0.04
			c0.03,0.03,0.07,0.07,0.1,0.1c0,0,0.03,0.05,0.03,0.05C64.57,51.11,64.6,51.16,64.64,51.21z"/>
	</g>
</g>
<g id="fiction">
</g>
<g id="science">
</g>
</svg>
